<?xml version="1.0" encoding="UTF-8" standalone="no"?>
<!-- Created with Inkscape (http://www.inkscape.org/) -->

<svg
   width="562"
   height="130"
   viewBox="0 0 562 130"
   version="1.1"
   id="svg5"
   xmlns="http://www.w3.org/2000/svg"
   xmlns:svg="http://www.w3.org/2000/svg"
   xmlns:rdf="http://www.w3.org/1999/02/22-rdf-syntax-ns#">
  <style>
    path { stroke: black; }
    circle { fill: black; }
    @media (prefers-color-scheme: dark) {
      path { stroke: white; }
      circle { fill: white; }
    }
  </style>
  <defs
     id="defs2" />
  <g
     id="logo"
     transform="matrix(99.999998,0,0,99.999998,24.750001,-66.244616)">
    <g
       id="g409"
       transform="matrix(2.0003062,0,0,2.0003062,-1.0491855,-2.8132372)">
      <g
         id="c"
         transform="translate(-0.1462666,0.81366099)"
         style="display:inline">
        <path
           style="fill:none;stroke-width:0.0694444;stroke-linecap:round;stroke-dasharray:none;stroke-opacity:1"
           id="path448-8-0-6-7"
           d="m 1.0108237,1.4894275 a 0.27777779,0.27777779 0 0 1 -0.35167901,-0.06201 0.27777779,0.27777779 0 0 1 2e-8,-0.3571042 0.27777779,0.27777779 0 0 1 0.35167899,-0.06201" />
        <path
           style="fill:none;stroke-width:0.0694444;stroke-linecap:round;stroke-dasharray:none;stroke-opacity:1"
           id="path448-0-7-0-7-53"
           d="m 0.94485149,1.3751603 a 0.14583333,0.14583333 0 0 1 -0.18463147,-0.032556 0.14583333,0.14583333 0 0 1 0,-0.1874797 0.14583333,0.14583333 0 0 1 0.18463148,-0.032555" />
        <circle
           style="stroke:none;stroke-width:0.0694445;stroke-linecap:butt;stroke-dasharray:none;stroke-opacity:1"
           id="path1006-0-4-5-56"
           cx="0.87193483"
           cy="1.2488649"
           r="0.034722224" />
      </g>
      <g
         id="u"
         transform="translate(-2.3544371,1.5801224)"
         style="display:inline">
        <path
           id="path448-0-7-5-1"
           style="fill:none;stroke-width:0.0694444;stroke-linecap:round;stroke-linejoin:round"
           d="m 3.7837823,0.20466605 v 0.27771798 c 0,0.0521013 -0.027796,0.10024483 -0.072917,0.12629536 -0.045121,0.0260506 -0.1007124,0.0260506 -0.1458334,0 -0.045121,-0.0260505 -0.072917,-0.0741941 -0.072917,-0.12629536 l 4e-7,-0.27771798" />
        <path
           style="fill:none;stroke-width:0.0694444;stroke-linecap:round;stroke-linejoin:round;stroke-dasharray:none;stroke-opacity:1"
           d="m 3.9157268,0.20466605 v 0.27771798 c 0,0.0992404 -0.052944,0.1909424 -0.1388889,0.24056262 -0.085945,0.0496202 -0.1918331,0.0496202 -0.2777778,0 C 3.4131154,0.67332643 3.3601162,0.58162451 3.3600856,0.48238411 L 3.36,0.20466621"
           id="path5599-3-7-0" />
      </g>
      <g
         id="r"
         transform="translate(-2.374897,1.5801117)"
         style="display:inline">
        <path
           id="path7437-2"
           style="fill:none;stroke-width:0.0694444;stroke-linecap:round;stroke-linejoin:round;stroke-dasharray:none;stroke-opacity:1"
           d="M 4.0772037,0.76016231 4.0771924,0.4807085 c -3.9e-6,-0.097526 0.052933,-0.18922799 0.1388777,-0.23884821 0.085945,-0.0496202 0.1918331,-0.0496202 0.2777778,10e-9" />
        <path
           id="path7437-3-6"
           style="fill:none;stroke-width:0.0694444;stroke-linecap:round;stroke-linejoin:round;stroke-dasharray:none;stroke-opacity:1"
           d="M 4.2091257,0.76016206 V 0.48242293 c 0,-0.0521013 0.027796,-0.10024485 0.072917,-0.12629538 0.045121,-0.0260506 0.1007123,-0.0260506 0.1458333,0" />
      </g>
      <g
         id="s1"
         transform="translate(-1.5164878,1.5801843)">
        <path
           id="path448-0-7-0-7-9-2"
           style="fill:none;stroke-width:0.0694444;stroke-linecap:round;stroke-linejoin:round"
           d="m 4.1329261,0.35604625 c -0.045121,-0.0260506 -0.1007124,-0.0260506 -0.1458334,0 -0.045121,0.0260505 -0.072917,0.0741941 -0.072917,0.12629537 -10e-8,0.0992404 -0.052944,0.19094241 -0.1388889,0.24056263 -0.085945,0.0496202 -0.1918331,0.0496202 -0.2777778,-1e-8" />
        <path
           id="path448-0-7-0-7-9-9-3"
           style="fill:none;stroke-width:0.0694444;stroke-linecap:round;stroke-linejoin:round"
           d="m 3.5634807,0.60863699 c 0.045121,0.0260506 0.1007124,0.0260506 0.1458334,0 0.045121,-0.0260505 0.072917,-0.0741941 0.072917,-0.12629537 0,-0.0992405 0.052944,-0.19094241 0.1388889,-0.24056263 0.085945,-0.0496202 0.1918331,-0.0496202 0.2777778,10e-9" />
      </g>
      <g
         id="s2"
         transform="translate(-1.0357668,1.5801843)">
        <path
           id="path448-0-7-0-7-9-2-6"
           style="fill:none;stroke-width:0.0694444;stroke-linecap:round;stroke-linejoin:round"
           d="m 4.1329261,0.35604625 c -0.045121,-0.0260506 -0.1007124,-0.0260506 -0.1458334,0 -0.045121,0.0260505 -0.072917,0.0741941 -0.072917,0.12629537 -10e-8,0.0992404 -0.052944,0.19094241 -0.1388889,0.24056263 -0.085945,0.0496202 -0.1918331,0.0496202 -0.2777778,-1e-8" />
        <path
           id="path448-0-7-0-7-9-9-3-6"
           style="fill:none;stroke-width:0.0694444;stroke-linecap:round;stroke-linejoin:round"
           d="m 3.5634807,0.60863699 c 0.045121,0.0260506 0.1007124,0.0260506 0.1458334,0 0.045121,-0.0260505 0.072917,-0.0741941 0.072917,-0.12629537 0,-0.0992405 0.052944,-0.19094241 0.1388889,-0.24056263 0.085945,-0.0496202 0.1918331,-0.0496202 0.2777778,10e-9" />
      </g>
    </g>
  </g>
  <metadata
     id="metadata1007">
    <rdf:RDF />
  </metadata>
</svg>
