<?xml version="1.0" encoding="UTF-8" standalone="no"?>
<!-- Created with Inkscape (http://www.inkscape.org/) -->

<svg
   width="562"
   height="130"
   viewBox="0 0 562 130"
   version="1.1"
   id="svg5"
   inkscape:version="1.2.2 (b0a8486541, 2022-12-01)"
   sodipodi:docname="logo.ink.svg"
   inkscape:export-filename="assets/logo.svg"
   inkscape:export-xdpi="96"
   inkscape:export-ydpi="96"
   xmlns:inkscape="http://www.inkscape.org/namespaces/inkscape"
   xmlns:sodipodi="http://sodipodi.sourceforge.net/DTD/sodipodi-0.dtd"
   xmlns="http://www.w3.org/2000/svg"
   xmlns:svg="http://www.w3.org/2000/svg"
   xmlns:rdf="http://www.w3.org/1999/02/22-rdf-syntax-ns#">
  <style
     id="style5227">circle { fill:black; }
path { stroke:black; }
</style>
  <sodipodi:namedview
     id="namedview7"
     pagecolor="#ffffff"
     bordercolor="#999999"
     borderopacity="1"
     inkscape:showpageshadow="0"
     inkscape:pageopacity="0"
     inkscape:pagecheckerboard="0"
     inkscape:deskcolor="#d1d1d1"
     inkscape:document-units="px"
     showgrid="false"
     inkscape:zoom="1.7562278"
     inkscape:cx="280.99999"
     inkscape:cy="81.424517"
     inkscape:window-width="1563"
     inkscape:window-height="1013"
     inkscape:window-x="0"
     inkscape:window-y="0"
     inkscape:window-maximized="1"
     inkscape:current-layer="svg5" />
  <defs
     id="defs2" />
  <g
     inkscape:groupmode="layer"
     id="logo"
     inkscape:label="logo"
     transform="matrix(99.999998,0,0,99.999998,24.750001,-66.244616)">
    <g
       id="g409"
       transform="matrix(2.0003062,0,0,2.0003062,-1.0491855,-2.8132372)"
       inkscape:label="curss">
      <g
         id="c"
         inkscape:label="c"
         transform="translate(-0.1462666,0.81366099)"
         style="display:inline">
        <path
           style="fill:none;stroke-width:0.06944437;stroke-linecap:round;stroke-dasharray:none;stroke-opacity:1"
           id="path448-8-0-6-7"
           sodipodi:type="arc"
           sodipodi:cx="0.87193483"
           sodipodi:cy="1.2488649"
           sodipodi:rx="0.27777779"
           sodipodi:ry="0.27777779"
           sodipodi:start="1.0471976"
           sodipodi:end="5.2359878"
           sodipodi:arc-type="arc"
           d="m 1.0108237,1.4894275 a 0.27777779,0.27777779 0 0 1 -0.35167901,-0.06201 0.27777779,0.27777779 0 0 1 2e-8,-0.3571042 0.27777779,0.27777779 0 0 1 0.35167899,-0.06201"
           sodipodi:open="true"
           inkscape:label="outer curve" />
        <path
           style="fill:none;stroke-width:0.06944437;stroke-linecap:round;stroke-dasharray:none;stroke-opacity:1"
           id="path448-0-7-0-7-53"
           sodipodi:type="arc"
           sodipodi:cx="0.87193483"
           sodipodi:cy="1.2488649"
           sodipodi:rx="0.14583333"
           sodipodi:ry="0.14583333"
           sodipodi:start="1.0471976"
           sodipodi:end="5.2359878"
           sodipodi:arc-type="arc"
           d="m 0.94485149,1.3751603 a 0.14583333,0.14583333 0 0 1 -0.18463147,-0.032556 0.14583333,0.14583333 0 0 1 0,-0.1874797 0.14583333,0.14583333 0 0 1 0.18463148,-0.032555"
           sodipodi:open="true"
           inkscape:label="inner curve" />
        <circle
           style="stroke:none;stroke-width:0.0694445;stroke-linecap:butt;stroke-dasharray:none;stroke-opacity:1"
           id="path1006-0-4-5-56"
           cx="0.87193483"
           cy="1.2488649"
           r="0.034722224"
           inkscape:label="center dot" />
      </g>
      <g
         id="u"
         inkscape:label="u"
         transform="translate(-2.3544371,1.5801224)"
         style="display:inline">
        <path
           id="path448-0-7-5-1"
           style="fill:none;stroke-width:0.06944437;stroke-linecap:round;stroke-linejoin:round;stroke-dasharray:none;stroke-opacity:1"
           d="m 3.7837823,0.20466605 v 0.27771798 c 0,0.0521013 -0.027796,0.10024483 -0.072917,0.12629536 -0.045121,0.0260506 -0.1007124,0.0260506 -0.1458334,0 -0.045121,-0.0260505 -0.072917,-0.0741941 -0.072917,-0.12629536 l 4e-7,-0.27771798"
           sodipodi:nodetypes="cssssc"
           inkscape:label="inner" />
        <path
           style="fill:none;stroke-width:0.06944437;stroke-linecap:round;stroke-linejoin:round;stroke-dasharray:none;stroke-opacity:1"
           d="m 3.9157268,0.20466605 v 0.27771798 c 0,0.0992404 -0.052944,0.1909424 -0.1388889,0.24056262 -0.085945,0.0496202 -0.1918331,0.0496202 -0.2777778,0 C 3.4131154,0.67332643 3.3601162,0.58162451 3.3600856,0.48238411 L 3.36,0.20466621"
           id="path5599-3-7-0"
           sodipodi:nodetypes="cssssc"
           inkscape:label="outer" />
      </g>
      <g
         id="r"
         transform="translate(-2.374897,1.5801117)"
         style="display:inline"
         inkscape:label="r">
        <path
           id="path7437-2"
           style="fill:none;stroke-width:0.06944437;stroke-linecap:round;stroke-linejoin:round;stroke-dasharray:none;stroke-opacity:1"
           d="M 4.0772037,0.76016231 4.0771924,0.4807085 c -3.9e-6,-0.097526 0.052933,-0.18922799 0.1388777,-0.23884821 0.085945,-0.0496202 0.1918331,-0.0496202 0.2777778,10e-9"
           sodipodi:nodetypes="cssc"
           inkscape:label="left" />
        <path
           id="path7437-3-6"
           style="fill:none;stroke-width:0.06944437;stroke-linecap:round;stroke-linejoin:round;stroke-dasharray:none;stroke-opacity:1"
           d="M 4.2091257,0.76016206 V 0.48242293 c 0,-0.0521013 0.027796,-0.10024485 0.072917,-0.12629538 0.045121,-0.0260506 0.1007123,-0.0260506 0.1458333,0"
           sodipodi:nodetypes="cssc"
           inkscape:label="right" />
      </g>
      <g
         id="s1"
         transform="translate(-1.5164878,1.5801843)"
         inkscape:label="s">
        <path
           id="path448-0-7-0-7-9-2"
           style="fill:none;stroke-width:0.06944437;stroke-linecap:round;stroke-linejoin:round;stroke-dasharray:none;stroke-opacity:1"
           d="m 4.1329261,0.35604625 c -0.045121,-0.0260506 -0.1007124,-0.0260506 -0.1458334,0 -0.045121,0.0260505 -0.072917,0.0741941 -0.072917,0.12629537 -10e-8,0.0992404 -0.052944,0.19094241 -0.1388889,0.24056263 -0.085945,0.0496202 -0.1918331,0.0496202 -0.2777778,-1e-8"
           sodipodi:nodetypes="csssc"
           inkscape:label="bottom" />
        <path
           id="path448-0-7-0-7-9-9-3"
           style="fill:none;stroke-width:0.06944437;stroke-linecap:round;stroke-linejoin:round;stroke-dasharray:none;stroke-opacity:1"
           d="m 3.5634807,0.60863699 c 0.045121,0.0260506 0.1007124,0.0260506 0.1458334,0 0.045121,-0.0260505 0.072917,-0.0741941 0.072917,-0.12629537 0,-0.0992405 0.052944,-0.19094241 0.1388889,-0.24056263 0.085945,-0.0496202 0.1918331,-0.0496202 0.2777778,10e-9"
           sodipodi:nodetypes="csssc"
           inkscape:label="top" />
      </g>
      <g
         id="s2"
         transform="translate(-1.0357668,1.5801843)"
         inkscape:label="s">
        <path
           id="path448-0-7-0-7-9-2-6"
           style="fill:none;stroke-width:0.06944437;stroke-linecap:round;stroke-linejoin:round;stroke-dasharray:none;stroke-opacity:1"
           d="m 4.1329261,0.35604625 c -0.045121,-0.0260506 -0.1007124,-0.0260506 -0.1458334,0 -0.045121,0.0260505 -0.072917,0.0741941 -0.072917,0.12629537 -10e-8,0.0992404 -0.052944,0.19094241 -0.1388889,0.24056263 -0.085945,0.0496202 -0.1918331,0.0496202 -0.2777778,-1e-8"
           sodipodi:nodetypes="csssc"
           inkscape:label="bottom" />
        <path
           id="path448-0-7-0-7-9-9-3-6"
           style="fill:none;stroke-width:0.06944437;stroke-linecap:round;stroke-linejoin:round;stroke-dasharray:none;stroke-opacity:1"
           d="m 3.5634807,0.60863699 c 0.045121,0.0260506 0.1007124,0.0260506 0.1458334,0 0.045121,-0.0260505 0.072917,-0.0741941 0.072917,-0.12629537 0,-0.0992405 0.052944,-0.19094241 0.1388889,-0.24056263 0.085945,-0.0496202 0.1918331,-0.0496202 0.2777778,10e-9"
           sodipodi:nodetypes="csssc"
           inkscape:label="top" />
      </g>
    </g>
  </g>
  <metadata
     id="metadata1007">
    <rdf:RDF />
  </metadata>
</svg>
